<?xml version="1.0" encoding="UTF-8"?><svg fill="#ffffff" id="Layer_1" xmlns="http://www.w3.org/2000/svg" viewBox="0 0 500 500"><g id="Lcc5fF.tif"><path d="M212.34,199.79c34.87-3.36,59.25,24.86,49.96,58.69-12.25,44.62-78.49,42.27-87.63-3.07-5.2-25.81,10.13-52.96,37.67-55.62ZM215.35,202.26c-48.8,1.73-34.34,98.55,13.86,84.5,38.04-11.09,27.42-85.96-13.86-84.5Z"/><path d="M319.94,288.23h-7.25c-.72,0-5.3-2.22-6.21-2.78-16.47-10.18-22.13-51.39-29.53-69.15-2.37-5.7-6.86-12.38-13.38-13.56l-4.63-.61c7.73-2.84,16.49-2.04,23.07,4.41,15.84,15.53,9.23,60.46,32.28,74.58.4.24-.02.94,1.14.63-1.43-6.23-.04-12.18,2.12-18.05,5.44-14.75,26.35-41.66,21.12-57.09-1.57-4.62-5.86-7.54-10.73-7.48-.13-.74.94-.62,1.49-.74,9.3-2.12,18.95,2.32,19.94,12.5,1.72,17.6-16.83,35.7-25.84,49.3-5.62,8.49-11.55,18.9-3.59,28.03Z"/><polygon points="101.19 201.63 157.19 272.81 157.44 201.63 160.94 201.63 160.95 288.98 159.68 290.26 95.19 209.6 95.44 288.73 92.16 288.25 91.94 201.63 101.19 201.63"/><path d="M407.19,288.73l-12.98-33.38-31.35.08-12.05,33.3h-4.87s34.49-89.84,34.49-89.84l1.77-.29,35.74,90.13h-10.75ZM364.85,250.91h28.04l-13.65-37.29-14.4,37.29Z"/></g><path d="M200.65,346.52c0,1.94-.83,3.44-2.49,4.48-1.66,1.04-4.02,1.57-7.07,1.57-3.26,0-5.85-.45-7.76-1.34v-2.14c2.45,1.09,5.04,1.64,7.76,1.64,2.41,0,4.24-.36,5.49-1.07s1.87-1.66,1.87-2.85c0-1.09-.5-2.01-1.49-2.76-1-.75-2.63-1.48-4.9-2.2-2.44-.79-4.15-1.46-5.14-2.03-.99-.57-1.73-1.21-2.23-1.92s-.75-1.58-.75-2.61c0-1.62.77-2.91,2.3-3.85s3.68-1.42,6.43-1.42,5.13.44,7.49,1.32l-.83,1.8c-2.39-.88-4.61-1.32-6.66-1.32s-3.57.29-4.73.88c-1.17.59-1.75,1.4-1.75,2.44,0,1.13.45,2.04,1.36,2.72.9.68,2.67,1.44,5.31,2.28,2.2.71,3.8,1.34,4.8,1.91,1,.57,1.75,1.21,2.25,1.93.5.72.75,1.57.75,2.54Z"/><path d="M218.68,350.82c1.41,0,2.63-.11,3.68-.32v1.6c-1.08.32-2.32.48-3.72.48-2.15,0-3.74-.51-4.77-1.54-1.02-1.03-1.54-2.64-1.54-4.83v-14.02h-3.61v-1.16l3.61-.9,1.12-4.91h1.14v5.25h7.16v1.72h-7.16v13.74c0,1.66.33,2.9.99,3.69.66.8,1.69,1.2,3.1,1.2Z"/><path d="M233.62,330.47v14.06c0,2.18.52,3.77,1.55,4.76s2.63,1.49,4.8,1.49c2.9,0,5.04-.65,6.41-1.96,1.37-1.3,2.05-3.43,2.05-6.37v-11.98h2.2v21.71h-1.88l-.4-3h-.13c-1.59,2.26-4.41,3.4-8.46,3.4-5.55,0-8.32-2.64-8.32-7.93v-14.18h2.2Z"/><path d="M271.79,330.05c1.76,0,3.29.29,4.58.86,1.29.57,2.44,1.55,3.46,2.93h.13c-.09-1.68-.13-3.32-.13-4.93v-7.81h2.2v31.08h-1.46l-.56-3.32h-.18c-1.86,2.48-4.52,3.72-7.99,3.72s-5.94-.93-7.72-2.8c-1.78-1.86-2.67-4.58-2.67-8.15,0-3.75.88-6.62,2.65-8.61,1.76-1.98,4.33-2.98,7.69-2.98ZM271.79,331.85c-2.66,0-4.66.83-6,2.5-1.34,1.66-2.01,4.08-2.01,7.25,0,6.15,2.68,9.23,8.05,9.23,2.75,0,4.77-.71,6.06-2.14,1.29-1.42,1.93-3.77,1.93-7.05v-.34c0-3.36-.63-5.77-1.9-7.24-1.26-1.47-3.31-2.21-6.14-2.21Z"/><path d="M293.71,324.44c0-1.28.47-1.92,1.41-1.92.46,0,.83.17,1.09.5.26.33.39.81.39,1.42s-.13,1.07-.39,1.42c-.26.35-.63.52-1.09.52-.94,0-1.41-.65-1.41-1.94ZM296.25,352.18h-2.22v-21.71h2.22v21.71Z"/><path d="M328.55,341.29c0,3.54-.96,6.31-2.89,8.3-1.93,1.99-4.59,2.99-7.99,2.99-2.14,0-4.02-.46-5.65-1.38-1.63-.92-2.88-2.24-3.75-3.95-.87-1.72-1.3-3.7-1.3-5.95,0-3.54.96-6.3,2.89-8.28,1.93-1.98,4.58-2.97,7.94-2.97s5.98,1,7.89,3.01,2.86,4.75,2.86,8.24ZM309.3,341.29c0,2.98.74,5.31,2.21,6.98,1.47,1.67,3.56,2.51,6.25,2.51s4.77-.84,6.25-2.51c1.47-1.67,2.21-4,2.21-6.98s-.74-5.32-2.23-6.97c-1.49-1.65-3.58-2.48-6.27-2.48s-4.77.82-6.23,2.47c-1.46,1.64-2.19,3.97-2.19,6.98Z"/></svg>