<svg xmlns="http://www.w3.org/2000/svg" viewBox="0 0 800 400" fill="#1a1a1a">
  <!-- NOVA text -->
  <g transform="translate(0, 0)">
    <!-- N -->
    <path d="M 52 280 L 52 42 L 60 42 L 60 52 Q 62 46 65 42 L 68 42 L 165 260 L 165 42 L 173 42 L 173 280 L 165 280 L 65 58 L 60 280 Z" />

    <!-- O -->
    <path d="M 280 161 Q 280 42 350 42 Q 420 42 420 161 Q 420 280 350 280 Q 280 280 280 161 Z M 295 161 Q 295 268 350 268 Q 405 268 405 161 Q 405 54 350 54 Q 295 54 295 161 Z" fill-rule="evenodd" />

    <!-- V with signature curve -->
    <path d="M 430 42 L 432 42 Q 440 42 448 60 L 520 240 L 530 260 Q 534 268 530 270 Q 526 268 524 260 L 448 60 Q 444 50 440 46 L 432 42 Z M 430 42 L 520 280 L 610 42 L 600 42 L 520 248 L 440 42 Z" />

    <!-- A -->
    <path d="M 615 280 L 710 42 L 718 42 L 812 280 L 804 280 L 775 200 L 650 200 L 620 280 Z M 655 190 L 770 190 L 714 52 Z" />
  </g>

  <!-- studio text -->
  <text x="400" y="348" text-anchor="middle" font-family="'Montserrat', 'Helvetica Neue', sans-serif" font-size="52" font-weight="300" letter-spacing="8" fill="#1a1a1a">studio</text>
</svg>